<?xml version="1.0" standalone="no"?>
<!DOCTYPE svg PUBLIC "-//W3C//DTD SVG 20010904//EN"
 "http://www.w3.org/TR/2001/REC-SVG-20010904/DTD/svg10.dtd">
<svg version="1.0" xmlns="http://www.w3.org/2000/svg"
 width="512.000000pt" height="512.000000pt" viewBox="0 0 512.000000 512.000000"
 preserveAspectRatio="xMidYMid meet">
<metadata>
Created by potrace 1.11, written by Peter Selinger 2001-2013
</metadata>
<g transform="translate(0.000000,512.000000) scale(0.100000,-0.100000)"
fill="#000000" stroke="none">
<path d="M1255 4102 c-71 -24 -140 -67 -164 -101 -20 -27 -21 -43 -21 -240 l0
-211 40 -39 c22 -21 69 -52 105 -67 l65 -28 0 -877 0 -877 -46 -11 c-52 -13
-120 -45 -146 -69 -16 -14 -18 -40 -18 -274 l0 -258 45 -29 c95 -60 120 -62
650 -59 472 3 481 3 536 26 76 31 134 83 172 156 30 57 32 67 32 166 0 99 -2
109 -32 166 -38 74 -96 126 -172 156 -44 17 -83 23 -183 26 l-128 4 0 446 c0
245 2 443 4 441 2 -2 62 -134 134 -294 263 -585 253 -565 283 -580 22 -12 79
-15 276 -15 224 0 251 2 278 19 26 15 55 75 204 412 96 217 180 405 187 419
11 21 13 -47 14 -411 l0 -437 -127 -4 c-113 -3 -135 -6 -185 -30 -91 -42 -124
-73 -163 -150 -33 -66 -35 -77 -35 -167 0 -81 4 -104 25 -149 40 -87 71 -119
153 -160 l76 -37 510 0 511 0 65 31 c85 41 124 79 160 156 27 56 30 73 30 159
0 90 -2 101 -36 168 -20 40 -49 82 -67 95 -40 31 -132 74 -174 82 l-33 6 0
877 0 876 75 34 c85 38 125 77 164 161 23 48 26 67 26 160 -1 98 -3 109 -32
166 -38 73 -96 125 -172 156 -54 22 -68 23 -436 26 -359 2 -382 1 -411 -17
-32 -19 -22 2 -524 -1133 -46 -104 -85 -187 -86 -185 -1 1 -129 282 -283 625
-155 343 -288 637 -296 653 -30 58 -39 59 -437 59 -318 -1 -369 -3 -413 -18z"/>
</g>
</svg>
